<?xml version="1.0" encoding="utf-8"?>
<!-- Generator: Adobe Illustrator 27.0.0, SVG Export Plug-In . SVG Version: 6.00 Build 0)  -->
<svg version="1.1" id="_图层_2" xmlns="http://www.w3.org/2000/svg" xmlns:xlink="http://www.w3.org/1999/xlink" x="0px" y="0px"
	 viewBox="0 0 355.6 65.2" style="enable-background:new 0 0 355.6 65.2;" xml:space="preserve">
<style type="text/css">
	.st0{fill:#329B9F;}
	.st1{fill:#339498;stroke:#329B9F;stroke-width:0.1417;stroke-miterlimit:10;}
</style>
<g id="_图层_2-2">
	<g>
		<g id="_图层_1-2">
			<g>
				<g>
					<path class="st0" d="M35.5,18.8l-13.8-8.2c-0.5-1.8-2.2-3.2-4.2-3.2s-3.6,1.3-4.1,3.1l-9.2,5.1c-2.3,0.1-4.2,2-4.2,4.3
						c0,1.5,0.7,2.8,1.9,3.5v26.2c0,1.4,1.1,2.5,2.5,2.5s2.5-1.1,2.5-2.5V23.4c1.1-0.8,1.9-2.1,1.9-3.5c0-0.4-0.1-0.7-0.1-1.1
						l6.4-3.6c0.7,0.5,1.6,0.8,2.5,0.8s1.7-0.3,2.4-0.7L33,23c0.4,0.2,0.8,0.4,1.3,0.4c0.8,0,1.7-0.4,2.1-1.2
						C37.1,21,36.7,19.5,35.5,18.8z M4.2,21.6c-1,0-1.7-0.8-1.7-1.7s0.8-1.7,1.7-1.7S6,18.9,6,19.9S5.2,21.6,4.2,21.6z M17.5,13.4
						c-1,0-1.7-0.8-1.7-1.7s0.8-1.7,1.7-1.7s1.7,0.8,1.7,1.7S18.4,13.4,17.5,13.4z"/>
					<path class="st0" d="M48.2,28.8c0-2.4-2-4.3-4.4-4.3s-4.3,1.9-4.3,4.3c0,1.6,0.9,3,2.1,3.7v13.8c0,1.4,1.1,2.5,2.5,2.5
						s2.5-1.1,2.5-2.5V32.1C47.6,31.4,48.2,30.2,48.2,28.8z M43.8,30.5c-1,0-1.7-0.8-1.7-1.7s0.8-1.7,1.7-1.7s1.7,0.8,1.7,1.7
						S44.8,30.5,43.8,30.5z"/>
					<path class="st0" d="M61.1,22.6c0.8-0.8,1.3-1.9,1.3-3.1c0-2.3-1.8-4.2-4.1-4.3L33.1,0.3c-1.2-0.7-2.7-0.3-3.4,0.9
						c-0.7,1.2-0.3,2.7,0.9,3.4L54,18.4c-0.1,0.4-0.2,0.7-0.2,1.1c0,1.7,1,3.1,2.4,3.9V45c-1.6,0.7-2.7,2.2-2.7,4v0.5L42,56.1
						c-1.2,0.7-1.6,2.2-0.9,3.4c0.5,0.8,1.3,1.2,2.2,1.2c0.4,0,0.8-0.1,1.2-0.3L57,53.2c0.3,0.1,0.6,0.1,0.9,0.1
						c2.4,0,4.3-1.9,4.3-4.3c0-1.1-0.4-2-1-2.8C61.2,46.2,61.1,22.6,61.1,22.6z M57.8,50.7c-1,0-1.7-0.8-1.7-1.7s0.8-1.7,1.7-1.7
						s1.7,0.8,1.7,1.7S58.8,50.7,57.8,50.7z M58,21.2c-1,0-1.7-0.8-1.7-1.7s0.8-1.7,1.7-1.7s1.7,0.8,1.7,1.7S59,21.2,58,21.2z"/>
					<path class="st0" d="M28.5,32.2c-0.3,0-0.6,0-0.8,0.1l-7.8-4.6c-0.2-2.2-2.1-3.8-4.3-3.8c-2.4,0-4.3,1.9-4.3,4.3
						c0,1.2,0.5,2.2,1.2,3v20.2c-0.8,0.8-1.4,1.9-1.4,3.1c0,2.4,1.9,4.3,4.4,4.3H16l10.7,6.1c0.4,0.2,0.8,0.3,1.2,0.3
						c0.9,0,1.7-0.4,2.2-1.2c0.7-1.2,0.3-2.7-0.9-3.4l-9.4-5.3c0-0.2,0.1-0.5,0.1-0.7c0-1.7-1-3.1-2.4-3.8V32l0,0l6.7,4
						c0,0.2-0.1,0.3-0.1,0.5c0,1.6,0.9,3,2.3,3.8v9c0,1.4,1.1,2.5,2.5,2.5l0,0c1.4,0,2.5-1.1,2.5-2.5v-9.5c0.9-0.8,1.4-1.9,1.4-3.2
						C32.9,34.1,30.9,32.1,28.5,32.2z M15.5,56.1c-1,0-1.7-0.8-1.7-1.7s0.8-1.7,1.7-1.7s1.7,0.8,1.7,1.7S16.4,56.1,15.5,56.1z
						 M15.6,29.8c-0.9,0-1.7-0.8-1.7-1.7s0.8-1.7,1.7-1.7s1.7,0.8,1.7,1.7C17.3,29,16.5,29.8,15.6,29.8z M28.7,38.2
						c-1,0-1.7-0.8-1.7-1.7s0.8-1.7,1.7-1.7s1.7,0.8,1.7,1.7S29.7,38.2,28.7,38.2z"/>
				</g>
				<g>
					<path class="st0" d="M232.3,27.5c0,0.4-0.1,0.7-0.3,1.1c-0.2,0.3-0.5,0.6-0.9,0.6c-0.4,0.1-0.8-0.1-1.1-0.4
						c-0.3-0.4-0.4-0.8-0.4-1.3V6.3l0.4-1.2l1-0.4l1.1,0.8l0.2,0.9V27.5L232.3,27.5z"/>
					<path class="st0" d="M254.3,5.2c0.3,0,0.6,0,1,0.2c0.3,0.1,0.5,0.5,0.5,0.8c0.1,0.4-0.1,0.8-0.4,1.1c-0.3,0.2-0.7,0.4-1.1,0.4
						h-14.1c-0.4,0-0.8,0.1-1.1,0.3c-0.2,0.2-0.3,0.4-0.4,0.6c-0.1,0.4-0.1,0.8-0.1,1.2v5.7H252c0.4,0,0.8,0.1,1.1,0.4
						c0.3,0.2,0.4,0.6,0.4,1s-0.2,0.7-0.5,0.9c-0.3,0.1-0.7,0.2-1.1,0.2h-13.5v6.8c-0.1,0.4,0,0.9,0.2,1.3c0.1,0.2,0.3,0.4,0.6,0.5
						c0.4,0.1,0.9,0.2,1.3,0.2h14.1c0.4,0,0.8,0.1,1.1,0.3c0.3,0.2,0.5,0.6,0.4,1c0,0.4-0.1,0.7-0.5,0.9c-0.3,0.2-0.7,0.3-1.1,0.3
						h-14.3c-0.8,0-1.6-0.1-2.4-0.2c-0.6-0.1-1.1-0.3-1.5-0.7c-0.3-0.3-0.5-0.7-0.6-1.2s-0.1-1.1-0.1-1.7V8.8c0-0.6,0-1.1,0.1-1.7
						c0.1-0.4,0.3-0.8,0.6-1.1s0.6-0.5,1.1-0.6c0.4-0.1,0.7-0.1,1.1-0.2L254.3,5.2L254.3,5.2z"/>
					<path class="st0" d="M282,11.3c0,0.3-0.2,0.6-0.4,0.8c-0.2,0.3-0.6,0.5-1,0.5c-0.5,0-0.9-0.2-1.2-0.6c-0.3-0.3-0.6-0.6-0.8-0.9
						c-0.4-0.4-0.7-0.9-1.2-1.3c-0.4-0.5-0.9-0.9-1.5-1.3s-1.3-0.7-2-0.8c-0.7-0.2-1.5-0.3-2.2-0.3c-0.9,0-1.9,0.1-2.8,0.3
						s-1.7,0.6-2.4,1c-0.8,0.5-1.4,1.2-1.9,2c-0.6,0.8-1,1.8-1.2,2.7c-0.2,1-0.4,2-0.4,3c0,0.9,0,1.7,0.1,2.6
						c0.1,0.8,0.3,1.6,0.5,2.4c0.5,1.6,1.6,2.9,3,3.8c0.7,0.5,1.4,0.8,2.2,1.1c0.8,0.2,1.6,0.4,2.4,0.4s1.5-0.1,2.3-0.2
						s1.6-0.4,2.4-0.8c0.7-0.4,1.3-0.8,1.9-1.4c0.5-0.4,0.9-0.9,1.3-1.4l0.8-1.3c0.2-0.4,0.5-0.7,0.9-1c0.4-0.2,0.8-0.1,1.1,0.1
						c0.4,0.2,0.6,0.6,0.7,1c0,0.6-0.2,1.1-0.6,1.5c-0.5,0.8-1,1.5-1.6,2.2c-1.2,1.3-2.7,2.4-4.4,3c-1,0.3-2,0.5-3,0.6
						c-1.2,0.1-2.5,0-3.7-0.2c-1.3-0.2-2.5-0.7-3.7-1.3c-1-0.5-1.9-1.2-2.7-2.1c-0.7-0.8-1.2-1.7-1.6-2.6s-0.7-1.9-0.9-2.9
						c-0.2-1.1-0.3-2.2-0.3-3.3c0-0.9,0.1-1.9,0.2-2.8s0.4-1.8,0.8-2.6c0.3-0.8,0.8-1.6,1.3-2.3s1.1-1.3,1.7-1.9
						c1.3-1.1,2.9-1.9,4.6-2.3c0.9-0.2,1.8-0.2,2.7-0.2c0.8,0,1.6,0.1,2.4,0.2s1.5,0.3,2.2,0.6s1.4,0.6,2,1c0.5,0.4,1.2,0.9,2,1.7
						c0.6,0.5,1.2,1.2,1.6,1.9C281.9,10.5,282,10.9,282,11.3L282,11.3L282,11.3z"/>
					<path class="st0" d="M303.3,6.1c0-0.3,0.1-0.7,0.2-1c0.2-0.3,0.6-0.4,0.9-0.4c0.7-0.1,1.4,0.4,1.5,1.1v13.9
						c0,1-0.1,1.9-0.2,2.9c-0.1,0.8-0.4,1.6-0.8,2.3s-0.9,1.3-1.4,1.9c-0.6,0.6-1.3,1.1-2.1,1.4c-1,0.4-2,0.7-3,0.8
						c-1.2,0.2-2.4,0.2-3.5,0.1c-0.9-0.1-1.8-0.2-2.7-0.4c-0.9-0.2-1.8-0.6-2.6-1.1c-0.8-0.5-1.5-1.2-2-1.9s-0.9-1.5-1.1-2.4
						c-0.2-1.1-0.3-2.2-0.3-3.3V6.4c0-0.4,0.1-0.9,0.3-1.3c0.2-0.3,0.6-0.4,1-0.4c0.4-0.1,0.8,0.1,1,0.4c0.2,0.4,0.4,0.8,0.4,1.3
						v13.3c0,1,0.1,2.1,0.4,3.1c0.2,0.7,0.6,1.4,1.1,1.9s1,0.9,1.7,1.2c0.8,0.3,1.7,0.5,2.6,0.6s1.9,0.2,2.8,0.1s1.8-0.3,2.7-0.6
						c0.8-0.3,1.6-0.8,2.1-1.5s0.8-1.5,1-2.3c0.2-0.9,0.2-1.9,0.3-2.8L303.3,6.1C303.3,6.1,303.3,6.1,303.3,6.1z"/>
					<path class="st0" d="M328,17c0.4,0.3,0.8,0.7,1.1,1.1c0.4,0.5,0.8,1.1,1,1.8c0.3,0.8,0.4,1.6,0.4,2.4c0,0.9-0.2,1.7-0.5,2.5
						s-0.8,1.5-1.4,2.2s-1.4,1.2-2.3,1.5c-0.8,0.3-1.7,0.4-2.6,0.4h-10.2c-0.6,0-1.1-0.1-1.7-0.2c-0.5-0.1-0.9-0.3-1.2-0.6
						c-0.3-0.3-0.5-0.6-0.6-1c-0.1-0.5-0.2-1-0.1-1.5V8c0-0.4,0-0.9,0.1-1.3s0.2-0.7,0.5-1s0.6-0.5,1-0.6c0.5-0.1,1.1-0.2,1.6-0.2
						h10.2c0.7,0,1.4,0.1,2,0.2c0.5,0.2,1,0.4,1.5,0.7c0.7,0.5,1.3,1.1,1.8,1.8c0.6,0.8,0.9,1.7,1,2.7c0.1,0.9,0,1.8-0.3,2.6
						c-0.2,0.7-0.6,1.4-1.2,1.9l-1.4,1.3C327.2,16.5,327.6,16.8,328,17L328,17L328,17z M312.4,15.3h9.8c0.8,0,1.6-0.1,2.4-0.4
						c0.6-0.2,1.2-0.6,1.7-1.1c0.4-0.5,0.6-1,0.7-1.7c0.1-0.5,0.1-1.1,0-1.6c-0.1-0.7-0.5-1.4-1-1.9c-0.4-0.5-0.9-0.8-1.5-0.9
						c-0.5-0.1-1.3-0.1-2.4-0.1h-7.8c-0.5-0.1-1,0-1.5,0.3c-0.3,0.2-0.4,0.6-0.4,1L312.4,15.3L312.4,15.3L312.4,15.3z M312.4,17.7
						V25c0,0.4,0.1,0.8,0.5,1.1c0.6,0.3,1.2,0.4,1.9,0.4h8c0.9,0,1.7-0.1,2.5-0.4c0.7-0.2,1.4-0.7,1.8-1.3s0.7-1.3,0.8-2
						c0.1-0.8,0-1.5-0.3-2.2c-0.2-0.7-0.7-1.3-1.2-1.8c-0.5-0.4-1-0.7-1.5-0.9c-0.7-0.2-1.4-0.3-2.2-0.2H312.4L312.4,17.7z"/>
					<path class="st0" d="M352.4,5.2c0.3,0,0.6,0,1,0.2c0.3,0.1,0.5,0.5,0.5,0.8c0.1,0.4-0.1,0.8-0.4,1.1c-0.3,0.2-0.7,0.4-1.1,0.4
						h-14.1c-0.4,0-0.8,0.1-1,0.3c-0.2,0.2-0.3,0.4-0.4,0.6c-0.1,0.4-0.1,0.8-0.1,1.2v5.7h13.5c0.4,0,0.8,0.1,1.1,0.4
						c0.3,0.2,0.5,0.6,0.4,1c0,0.4-0.2,0.7-0.5,0.9c-0.3,0.1-0.7,0.2-1.1,0.2h-13.5v6.8c0,0.4,0,0.9,0.2,1.3
						c0.1,0.2,0.3,0.4,0.5,0.5c0.4,0.1,0.9,0.2,1.3,0.2h14.1c0.4,0,0.8,0.1,1.1,0.3c0.3,0.2,0.4,0.6,0.4,1s-0.1,0.7-0.4,0.9
						s-0.7,0.3-1.1,0.3h-14.2c-0.8,0-1.6-0.1-2.4-0.2c-0.6-0.1-1.1-0.3-1.5-0.7c-0.3-0.3-0.5-0.7-0.6-1.2s-0.1-1.1-0.1-1.7V8.8
						c0-0.6,0-1.1,0.1-1.7c0.1-0.4,0.3-0.8,0.6-1.1c0.3-0.3,0.6-0.5,1-0.6s0.7-0.1,1.1-0.2C336.8,5.2,352.4,5.2,352.4,5.2z"/>
					<path class="st0" d="M142.5,27h-1.1v-4.8c0-0.9-0.3-1.7-0.7-2.4c0.6,0.1,1.2,0.2,1.8,0.2c0.7,0,1.2-0.5,1.2-1.2
						s-0.6-1.2-1.2-1.2c-2.1-0.1-4.1-1.2-5.2-3c-0.4-0.6-1.1-0.7-1.7-0.3c-0.6,0.4-0.7,1.1-0.3,1.7s0.9,1.2,1.4,1.7h-16.3
						c1.7-1.6,3-3.9,3.3-6.6v-0.2h19c0.7-0.1,1.2-0.7,1.1-1.4c-0.1-0.7-0.7-1.2-1.4-1.1h-6.8l3.1-2.8l0,0c0.5-0.5,0.5-1.2,0.1-1.7
						c-0.5-0.5-1.2-0.5-1.7-0.1L132,8.4h-7l-5.1-4.6c-0.5-0.4-1.3-0.4-1.7,0.1c-0.4,0.5-0.4,1.3,0.1,1.7l3.1,2.8h-7
						c-0.7,0.1-1.2,0.7-1.1,1.4s0.7,1.2,1.4,1.1h6.7c-0.6,3.9-3.4,6.7-6.7,6.7l0,0c-0.7,0-1.2,0.5-1.2,1.2s0.6,1.2,1.2,1.2
						s1.2-0.1,1.8-0.2c-0.4,0.7-0.7,1.5-0.7,2.3V27h-1.1c-0.7,0-1.2,0.5-1.2,1.2s0.6,1.2,1.2,1.2h27.9c0.7,0,1.2-0.5,1.2-1.2
						C143.7,27.5,143.1,27,142.5,27L142.5,27L142.5,27z M123.4,27h-5.3v-4.8c0-1.1,0.9-2,2-2h3.3V27L123.4,27z M131.1,27h-5.3v-6.9
						h5.3V27z M138.8,27h-5.2v-6.9h3.2c1.1,0,2,0.9,2,2V27L138.8,27z"/>
					<path class="st0" d="M108.4,13L108.4,13V8.1c0.1-1.2-0.7-2.2-1.9-2.3h-2.3l0.2-0.1c0.5-0.4,0.5-1.2,0.1-1.7s-1.2-0.5-1.7-0.1
						l-2.2,2h-13l-2.2-2c-0.5-0.4-1.3-0.4-1.7,0.1c-0.4,0.5-0.4,1.3,0.1,1.7L84,5.8h-2.3c-1.2,0.1-2,1.2-1.9,2.3V13l0,0
						c-0.1,1.2,0.7,2.2,1.9,2.4h7.7c0.7,0,1.3-0.4,1.4-1.1c0.1-0.4,0.1-0.8-0.1-1.2c0,0,0-0.1-0.1-0.1c0-0.1-0.1-0.1-0.2-0.2
						c-0.1-0.1-0.2-0.2-0.3-0.3l-3.2-2.9c-0.5-0.5-1.3-0.4-1.7,0.1c-0.4,0.5-0.4,1.3,0.1,1.7l1.5,1.3h-5V8.4h10.9v5.9
						c0,0.6,0.6,1.1,1.2,1.1l0,0c0.7,0,1.2-0.5,1.2-1.1V8.4H106v4.3h-5l1.5-1.3c0.5-0.5,0.5-1.2,0.1-1.7s-1.2-0.5-1.7-0.1L98,12.4
						c-0.1,0.1-0.2,0.2-0.3,0.3c-0.1,0.1-0.1,0.1-0.2,0.2L97.4,13c-0.2,0.4-0.2,0.8-0.1,1.2c0.2,0.6,0.8,1.1,1.4,1.1h7.7
						C107.7,15.2,108.5,14.2,108.4,13C108.4,13,108.4,13,108.4,13z"/>
					<path class="st0" d="M107,22c0-2.5-2-4.5-4.5-4.5H85.7c-2.5,0-4.5,2-4.5,4.5v6.2c0.1,0.6,0.5,1,1.1,1.1
						c0.7,0.1,1.3-0.4,1.4-1.1V22c0-1.1,0.9-2,2-2h16.7c1.1,0,2,0.9,2,2v5H90c-0.7,0-1.3-0.6-1.3-1.3s0.6-1.3,1.3-1.3h11.5
						c0.6-0.1,1-0.5,1.1-1.1c0.1-0.7-0.4-1.3-1.1-1.4H90c-2.1,0-3.8,1.7-3.8,3.8s1.7,3.8,3.8,3.8h15.7c0.6,0,1.1-0.4,1.2-1
						c0-0.1,0.1-0.2,0.1-0.2L107,22L107,22L107,22z"/>
					<g>
						<path class="st0" d="M149.6,8.1c-0.7,0-1.2,0.5-1.2,1.2s0.6,1.2,1.2,1.2h10.5c0.7,0,1.2-0.5,1.2-1.2s-0.6-1.2-1.2-1.2h-4V6.7
							h4c0.7,0,1.2-0.6,1.2-1.2c0-0.7-0.6-1.2-1.2-1.2h-4V3.6c0-0.7-0.6-1.2-1.2-1.2s-1.2,0.6-1.2,1.2v0.6h-4
							c-0.7,0-1.2,0.6-1.2,1.2c0,0.7,0.6,1.2,1.2,1.2h4V8h-4.1V8.1z"/>
						<path class="st0" d="M172.8,12.6h-23.2c-0.7,0.1-1.2,0.7-1.1,1.4c0.1,0.7,0.7,1.2,1.4,1.1h23c0.7,0,1.3,0.6,1.3,1.3
							s-0.6,1.3-1.3,1.3h-23.2c-0.7,0.1-1.2,0.7-1.1,1.4c0.1,0.7,0.7,1.2,1.4,1.1h23c2.1,0,3.8-1.7,3.8-3.8S174.9,12.6,172.8,12.6
							L172.8,12.6L172.8,12.6z"/>
						<path class="st0" d="M167.9,21.8h-7c-0.7,0-1.2,0.5-1.2,1.2s0.6,1.2,1.2,1.2h7c0.7,0,1.3,0.6,1.3,1.3s-0.6,1.3-1.3,1.3h-12.2
							v-3.9c0-0.7-0.6-1.2-1.2-1.2s-1.2,0.5-1.2,1.2V28c0,0.7,0.6,1.2,1.2,1.2h13.6c2-0.1,3.6-1.7,3.6-3.8S170,21.9,167.9,21.8
							L167.9,21.8L167.9,21.8z"/>
						<path class="st0" d="M149.6,21.8c-0.7,0-1.2,0.5-1.2,1.2v5.1c0,0.7,0.6,1.2,1.2,1.2s1.2-0.5,1.2-1.2V23
							C150.9,22.4,150.3,21.8,149.6,21.8z"/>
						<path class="st0" d="M175.3,21.8c-0.7,0-1.2,0.5-1.2,1.2v5.1c0,0.7,0.6,1.2,1.2,1.2s1.2-0.5,1.2-1.2V23
							C176.6,22.4,176,21.8,175.3,21.8z"/>
						<path class="st0" d="M175.3,8.1h-4V6.7h4c0.7,0,1.2-0.6,1.2-1.2c0-0.7-0.6-1.2-1.2-1.2h-4V3.6c0-0.7-0.6-1.2-1.2-1.2
							s-1.2,0.6-1.2,1.2v0.6h-4c-0.7,0-1.2,0.6-1.2,1.2c0,0.7,0.6,1.2,1.2,1.2h4V8h-4c-0.7,0-1.2,0.5-1.2,1.2s0.6,1.2,1.2,1.2h10.5
							c0.7,0,1.2-0.5,1.2-1.2C176.5,8.7,176,8.1,175.3,8.1C175.3,8.1,175.3,8.1,175.3,8.1z"/>
					</g>
					<g>
						<path class="st0" d="M198.8,11.9c-2.1-0.1-4.1-1.2-5.2-3c-0.4-0.6-1.1-0.7-1.7-0.4c-0.6,0.4-0.7,1.1-0.4,1.7
							c1.6,2.5,4.3,4,7.3,4c0.5-0.1,0.9-0.5,1-1S199.5,12,198.8,11.9L198.8,11.9L198.8,11.9z"/>
						<path class="st0" d="M194.2,6.4h0.2c0.7-0.1,1.2-0.7,1.1-1.4c-0.1-0.7-0.7-1.2-1.4-1.1h-6.9c-0.5,0-1,0.3-1.1,0.8l-3.5,9l0,0
							c-0.2,0.6,0.1,1.3,0.7,1.6c0.1,0,0.3,0.1,0.5,0.1c0.5,0,1-0.3,1.1-0.8l3.2-8.2L194.2,6.4L194.2,6.4z"/>
						<path class="st0" d="M207.2,4c-0.7,0-1.2,0.6-1.2,1.2v16.3l0,0v0.6l0,0v3.5c0,0.7-0.6,1.3-1.3,1.3h-2.6
							c-0.7,0-1.2,0.5-1.2,1.2s0.6,1.2,1.2,1.2h2.6c1.5,0,2.8-0.9,3.4-2.1c0.2-0.5,0.4-1,0.4-1.5l0,0V5.2C208.4,4.5,207.9,4,207.2,4
							L207.2,4L207.2,4z"/>
						<path class="st0" d="M202.7,21.8c0.7,0,1.2-0.5,1.2-1.2v-8.8c0-0.7-0.6-1.2-1.2-1.2s-1.2,0.5-1.2,1.2v8.8
							C201.5,21.3,202,21.8,202.7,21.8z"/>
						<path class="st0" d="M193.5,14.7c-0.5-0.2-1-0.4-1.5-0.4h-4.9c-0.8,0-1.4,0.5-1.4,1.2c0,0.7,0.6,1.2,1.4,1.2h4.7
							c0.7,0,1.3,0.6,1.3,1.3v2.5c0,0.7,0.6,1.2,1.2,1.2s1.2-0.5,1.2-1.2V18C195.6,16.6,194.7,15.3,193.5,14.7
							C193.5,14.7,193.5,14.7,193.5,14.7z"/>
						<path class="st0" d="M194.4,26.9h-4.9c-0.7,0-1.3-0.6-1.3-1.3v-3.5l0,0v-1.2c0-0.8-0.6-1.4-1.2-1.4s-1.2,0.6-1.2,1.4v4.9l0,0
							c0,0.5,0.1,1,0.4,1.5c0.6,1.3,1.9,2.1,3.4,2.1h4.9c0.7,0,1.2-0.5,1.2-1.2S195.1,26.9,194.4,26.9L194.4,26.9L194.4,26.9z"/>
					</g>
				</g>
			</g>
		</g>
		<g>
			<path class="st1" d="M83.3,61.4c-0.3-0.2-0.4-0.4-0.5-0.6s0-0.5,0.2-0.7c0.4-0.4,0.7-0.8,0.9-1.2c0.3-0.4,0.5-1,0.7-1.6
				c0.2-0.7,0.3-1.5,0.4-2.5c0.1-1,0.1-2.4,0.1-4c0-0.4,0.2-0.8,0.6-1.1c0.4-0.3,0.9-0.5,1.4-0.5H103c0.3,0,0.6,0.1,0.9,0.3
				c0.2,0.2,0.4,0.4,0.4,0.7s-0.1,0.5-0.4,0.7c-0.2,0.2-0.5,0.3-0.9,0.3H87.6c0,1.6-0.1,2.9-0.2,4c-0.1,1.1-0.3,2-0.5,2.7
				c-0.2,0.7-0.5,1.4-0.8,1.9c-0.3,0.5-0.7,1-1.2,1.5c-0.2,0.3-0.6,0.4-1,0.4C83.8,61.6,83.5,61.5,83.3,61.4z M83.3,42.8
				c0-0.3,0.1-0.5,0.4-0.7c0.2-0.2,0.5-0.3,0.9-0.3h8.6L91.8,40c-0.2-0.2-0.2-0.5-0.1-0.7s0.3-0.4,0.6-0.6c0.3-0.1,0.6-0.2,0.9-0.1
				c0.3,0.1,0.6,0.2,0.7,0.4l1.5,2.1c0.1,0.2,0.2,0.4,0.1,0.7h8c0.3,0,0.6,0.1,0.9,0.3c0.2,0.2,0.4,0.4,0.4,0.7
				c0,0.3-0.1,0.5-0.4,0.7c-0.2,0.2-0.5,0.3-0.9,0.3h-19c-0.3,0-0.6-0.1-0.9-0.3C83.5,43.3,83.3,43.1,83.3,42.8z M88.4,44.8
				c0.3-0.1,0.6-0.2,0.9-0.1c0.3,0.1,0.6,0.2,0.8,0.4l1.7,2.2c0.2,0.2,0.2,0.5,0.1,0.7c-0.1,0.2-0.3,0.4-0.5,0.6
				c-0.2,0.1-0.4,0.1-0.6,0.1c-0.4,0-0.8-0.2-1.1-0.5L88,46c-0.2-0.2-0.2-0.5-0.1-0.7C87.9,45.1,88.1,44.9,88.4,44.8z M98.1,45.1
				c0.2-0.2,0.4-0.4,0.7-0.4s0.6,0,0.9,0.1c0.3,0.1,0.5,0.3,0.5,0.6c0.1,0.2,0,0.5-0.1,0.7l-1.8,2.3c-0.2,0.3-0.5,0.5-1,0.5
				c-0.1,0-0.2,0-0.3,0c-0.1,0-0.2-0.1-0.3-0.1c-0.3-0.1-0.4-0.3-0.5-0.6c-0.1-0.2,0-0.5,0.2-0.7L98.1,45.1z"/>
			<path class="st1" d="M131.3,59.3c0.4,0,0.6,0.1,0.9,0.3c0.2,0.2,0.3,0.4,0.3,0.7s-0.1,0.5-0.3,0.7c-0.2,0.2-0.5,0.3-0.8,0.3
				h-20.2c-0.3,0-0.6-0.1-0.8-0.3c-0.2-0.2-0.3-0.4-0.3-0.7s0.1-0.5,0.3-0.7c0.2-0.2,0.5-0.3,0.8-0.3h5.9V39.6
				c0-0.3,0.1-0.5,0.3-0.7c0.2-0.2,0.5-0.3,0.8-0.3c0.3,0,0.6,0.1,0.9,0.3c0.2,0.2,0.4,0.4,0.4,0.7v19.7h3.5V39.6
				c0-0.3,0.1-0.5,0.4-0.7c0.2-0.2,0.5-0.3,0.9-0.3c0.3,0,0.6,0.1,0.8,0.3c0.2,0.2,0.3,0.4,0.3,0.7v19.7H131.3z M111.5,42.8
				c0.3-0.1,0.6,0,0.9,0.1c0.3,0.1,0.5,0.3,0.6,0.6l3,9.6c0.1,0.2,0,0.5-0.1,0.7c-0.2,0.2-0.4,0.4-0.7,0.4c-0.1,0-0.2,0-0.3,0
				c-0.3,0-0.5-0.1-0.8-0.2s-0.4-0.3-0.4-0.5l-3-9.6c-0.1-0.2,0-0.5,0.1-0.7C110.9,43,111.1,42.9,111.5,42.8z M129.5,43.5
				c0.1-0.2,0.3-0.4,0.5-0.6c0.3-0.1,0.6-0.2,0.9-0.1c0.3,0,0.5,0.2,0.7,0.4c0.2,0.2,0.2,0.5,0.2,0.7l-3,9.6
				c-0.1,0.2-0.2,0.4-0.4,0.5c-0.2,0.1-0.5,0.2-0.8,0.2c-0.1,0-0.2,0-0.3,0c-0.3,0-0.6-0.2-0.7-0.4c-0.2-0.2-0.2-0.5-0.1-0.7
				L129.5,43.5z"/>
			<path class="st1" d="M159,59.3c0.3,0.1,0.5,0.2,0.6,0.4c0.1,0.2,0.1,0.4,0,0.6c-0.1,0.2-0.2,0.3-0.4,0.4
				c-0.2,0.1-0.4,0.1-0.6,0.1c-0.1,0-0.1,0-0.2,0c-0.1,0-0.1,0-0.2,0c-1.6-0.5-3.1-1.1-4.5-1.9s-2.7-1.8-3.7-2.8v4.4
				c0,0.2-0.1,0.4-0.3,0.6c-0.2,0.2-0.5,0.3-0.8,0.3s-0.6-0.1-0.8-0.3c-0.2-0.2-0.3-0.4-0.3-0.6v-4.8c-0.6,0.5-1.2,1.1-1.8,1.5
				c-0.6,0.5-1.3,0.9-2,1.3c-0.7,0.4-1.5,0.8-2.2,1.2c-0.8,0.4-1.6,0.8-2.4,1.1c-0.2,0.1-0.3,0.1-0.5,0.1c-0.4,0-0.7-0.1-0.9-0.4
				c-0.2-0.2-0.2-0.4-0.1-0.6c0.1-0.2,0.2-0.4,0.5-0.5c1.5-0.7,2.9-1.3,4.1-2s2.4-1.4,3.4-2.3h-6.3c-0.3,0-0.6-0.1-0.8-0.3
				c-0.2-0.2-0.3-0.4-0.3-0.6c0-0.2,0.1-0.4,0.3-0.6c0.2-0.2,0.5-0.2,0.8-0.2h8.5v-0.9c0-0.2,0.1-0.4,0.3-0.6s0.5-0.2,0.8-0.2
				s0.6,0.1,0.8,0.2c0.2,0.2,0.3,0.4,0.3,0.6v0.9h8.1c0.3,0,0.6,0.1,0.8,0.2c0.2,0.2,0.3,0.4,0.3,0.6c0,0.2-0.1,0.4-0.3,0.6
				c-0.2,0.2-0.5,0.3-0.8,0.3h-6.4c0.9,0.9,2,1.7,3.2,2.4C156.3,58.4,157.6,59,159,59.3z M158.7,44.9c0.3,0,0.6,0.1,0.8,0.3
				c0.2,0.2,0.3,0.4,0.3,0.6c0,0.2-0.1,0.4-0.3,0.6c-0.2,0.2-0.5,0.2-0.8,0.2h-4.1c-0.4,0.5-0.8,1-1.2,1.4c-0.4,0.4-0.9,0.8-1.5,1.2
				c1,0.3,2.1,0.6,3.1,0.9s2,0.6,2.9,0.9c0.3,0.1,0.5,0.2,0.6,0.5c0.1,0.2,0.1,0.4,0,0.6c-0.1,0.2-0.2,0.3-0.4,0.4
				c-0.2,0.1-0.4,0.1-0.6,0.1c-0.2,0-0.3,0-0.4-0.1c-1.1-0.4-2.3-0.7-3.5-1.1s-2.5-0.7-3.7-1.1c-1.2,0.6-2.6,1-4.2,1.4
				c-1.6,0.3-3.5,0.6-5.6,0.8h-0.1c-0.2,0-0.5-0.1-0.7-0.2s-0.3-0.3-0.4-0.5c0-0.2,0-0.4,0.2-0.6c0.2-0.2,0.4-0.3,0.7-0.3
				c1.4-0.1,2.7-0.3,3.9-0.5c1.2-0.2,2.2-0.5,3.2-0.8c-0.7-0.2-1.4-0.3-2-0.4c-0.7-0.1-1.3-0.3-2-0.4c-0.2,0-0.3-0.1-0.5-0.2
				c-0.1-0.1-0.2-0.2-0.3-0.3c-0.1-0.3-0.1-0.5,0.1-0.7l0.9-0.9h-3.5c-0.3,0-0.6-0.1-0.8-0.2c-0.2-0.2-0.3-0.4-0.3-0.6
				c0-0.2,0.1-0.4,0.3-0.6c0.2-0.2,0.5-0.3,0.8-0.3h5.1l1.5-1.6c0.2-0.2,0.4-0.3,0.7-0.3c0.3,0,0.6,0,0.8,0.1
				c0.2,0.1,0.4,0.3,0.4,0.6c0,0.2,0,0.4-0.2,0.6l-0.6,0.7H158.7z M138.5,42.2c0-0.4,0.2-0.8,0.5-1.1c0.4-0.3,0.8-0.4,1.3-0.4h7.6
				l-0.6-0.6c-0.2-0.2-0.2-0.4-0.2-0.6c0.1-0.2,0.2-0.4,0.4-0.6c0.2-0.1,0.5-0.2,0.8-0.1c0.3,0,0.5,0.2,0.7,0.3l1.2,1.3
				c0,0,0.1,0.1,0.1,0.1c0,0,0,0.1,0.1,0.1h7c0.5,0,1,0.1,1.3,0.4s0.6,0.6,0.6,1.1v1.3c0,0.2-0.1,0.4-0.3,0.6s-0.5,0.2-0.8,0.2
				s-0.6-0.1-0.8-0.2s-0.3-0.4-0.3-0.6v-1.1h-16.6v1.2c0,0.2-0.1,0.4-0.3,0.6s-0.5,0.3-0.8,0.3s-0.6-0.1-0.8-0.3
				c-0.2-0.2-0.3-0.4-0.3-0.6V42.2z M149.5,48.6c1-0.5,1.9-1.2,2.6-2h-6.4l-0.8,0.9c0.8,0.1,1.6,0.3,2.3,0.5
				C147.9,48.2,148.7,48.4,149.5,48.6z"/>
			<path class="st1" d="M170.2,38.7c0.3,0,0.6,0.1,0.8,0.3s0.3,0.4,0.3,0.7c-0.1,1-0.3,2-0.5,3c-0.2,1-0.5,2-0.9,2.9v15
				c0,0.3-0.1,0.5-0.3,0.7c-0.2,0.2-0.5,0.3-0.8,0.3c-0.3,0-0.6-0.1-0.8-0.3c-0.2-0.2-0.3-0.4-0.3-0.7V50.4c0,0.1-0.1,0.1-0.1,0.1
				c-0.2,0.3-0.6,0.5-1,0.5c-0.2,0-0.4,0-0.6-0.1c-0.3-0.1-0.5-0.3-0.6-0.5c-0.1-0.2-0.1-0.5,0.1-0.7c0.9-1.4,1.7-3,2.3-4.7
				s1-3.6,1.2-5.5c0-0.2,0.2-0.4,0.4-0.6C169.6,38.7,169.9,38.7,170.2,38.7z M171.4,52.6c-0.3-0.1-0.5-0.3-0.6-0.5
				c-0.1-0.2-0.1-0.5,0.1-0.7c0.3-0.5,0.6-1.1,0.9-1.9c0.3-0.8,0.6-1.6,0.9-2.5c0.3-0.9,0.5-1.8,0.7-2.7c0.2-0.9,0.3-1.7,0.4-2.3
				h-0.9c-0.3,0-0.6-0.1-0.8-0.3c-0.2-0.2-0.3-0.4-0.3-0.7s0.1-0.5,0.3-0.7c0.2-0.2,0.5-0.3,0.8-0.3h6.3c0.3,0,0.6,0.1,0.9,0.3
				c0.2,0.2,0.4,0.4,0.4,0.7s-0.1,0.5-0.4,0.7c-0.2,0.2-0.5,0.3-0.9,0.3H176c0,0.4-0.1,0.9-0.2,1.4c-0.1,0.5-0.2,1.1-0.3,1.6h3.1
				c0.3,0,0.6,0.1,0.8,0.3c0.2,0.2,0.3,0.4,0.3,0.7c0,1.6-0.2,3.2-0.6,4.7c-0.4,1.5-0.9,3-1.5,4.3c-0.6,1.3-1.3,2.5-2.1,3.6
				c-0.8,1.1-1.6,1.9-2.4,2.6c-0.2,0.2-0.5,0.3-0.9,0.3c-0.3,0-0.6-0.1-0.8-0.3c-0.2-0.2-0.4-0.4-0.4-0.6c0-0.2,0.1-0.5,0.3-0.7
				c0.7-0.6,1.5-1.5,2.4-2.7c0.8-1.2,1.6-2.6,2.2-4.1c-0.2,0.1-0.3,0.1-0.5,0.1c-0.4,0-0.7-0.1-0.9-0.3l-1.2-1.1
				c0,0.1-0.1,0.2-0.1,0.2c0,0.1-0.1,0.1-0.1,0.2c-0.2,0.4-0.6,0.5-1.1,0.5c-0.1,0-0.2,0-0.2,0C171.6,52.6,171.5,52.6,171.4,52.6z
				 M175.1,46.9c-0.1,0.5-0.3,1-0.5,1.4c-0.2,0.5-0.3,0.9-0.5,1.4c0,0,0,0,0,0l2.1,1.8c0,0,0.1,0.1,0.1,0.1c0.2-0.8,0.5-1.6,0.6-2.4
				c0.2-0.8,0.3-1.6,0.3-2.4H175.1z M181.7,61.6c-0.3,0-0.6-0.1-0.9-0.3c-0.2-0.2-0.4-0.4-0.4-0.6c0-0.3,0.1-0.5,0.4-0.7
				c0.2-0.2,0.5-0.3,0.9-0.3c0.4,0,0.8-0.1,1.1-0.2c0.4-0.1,0.7-0.3,0.9-0.5c0.3-0.2,0.5-0.5,0.6-0.7c0.2-0.3,0.2-0.6,0.2-0.9v-18
				c0-0.3,0.1-0.5,0.3-0.7c0.2-0.2,0.5-0.3,0.9-0.3s0.6,0.1,0.9,0.3c0.2,0.2,0.3,0.4,0.3,0.6v18c0,0.6-0.1,1.1-0.4,1.6
				c-0.3,0.5-0.7,0.9-1.2,1.3c-0.5,0.4-1.1,0.7-1.7,0.9C183.2,61.5,182.5,61.6,181.7,61.6z M182,56.1c-0.3,0-0.6-0.1-0.8-0.3
				c-0.2-0.2-0.3-0.4-0.3-0.7V42.3c0-0.3,0.1-0.5,0.3-0.6s0.5-0.3,0.8-0.3s0.6,0.1,0.8,0.3c0.2,0.2,0.3,0.4,0.3,0.6v12.9
				c0,0.3-0.1,0.5-0.3,0.7C182.6,56,182.4,56.1,182,56.1z"/>
			<path class="st1" d="M192.8,48.6c-0.2-0.1-0.4-0.3-0.5-0.6s0-0.5,0.2-0.7l3-3.2c0.2-0.2,0.4-0.3,0.7-0.4s0.6,0,0.9,0.2
				c0.2,0.1,0.4,0.3,0.5,0.6c0.1,0.2,0,0.5-0.2,0.7l-3,3.2c-0.2,0.3-0.6,0.4-1,0.4C193.2,48.8,192.9,48.7,192.8,48.6z M214.1,59.8
				c0.3,0.1,0.5,0.3,0.6,0.5c0.1,0.2,0.2,0.5,0,0.7c-0.2,0.4-0.6,0.6-1.1,0.6c-0.1,0-0.3,0-0.5-0.1c-1.9-0.6-3.6-1.3-5.2-1.9
				c-1.6-0.7-3.2-1.4-4.6-2.2c-0.9,1.1-2.2,2.1-3.9,2.8c-1.7,0.7-3.6,1.2-5.9,1.3h-0.1c-0.3,0-0.6-0.1-0.8-0.2
				c-0.2-0.2-0.3-0.4-0.4-0.6c0-0.3,0-0.5,0.2-0.7s0.5-0.3,0.8-0.3c1.4-0.1,2.6-0.3,3.7-0.7s2-0.8,2.8-1.4c0.8-0.6,1.4-1.2,1.8-1.9
				c0.4-0.7,0.6-1.5,0.6-2.4c0-0.3,0.1-0.5,0.4-0.7c0.2-0.2,0.5-0.3,0.9-0.3c0.3,0,0.6,0.1,0.9,0.3c0.2,0.2,0.4,0.4,0.4,0.7
				c0,0.8-0.1,1.6-0.4,2.4c1.4,0.8,2.9,1.5,4.5,2.2C210.5,58.6,212.2,59.2,214.1,59.8z M197.8,41.2c0.2,0.2,0.4,0.4,0.4,0.6
				c0,0.2-0.1,0.5-0.3,0.7c-0.2,0.2-0.5,0.3-0.9,0.3c-0.3,0-0.6-0.1-0.8-0.2l-2.9-1.8c-0.3-0.2-0.4-0.4-0.5-0.6
				c0-0.2,0.1-0.5,0.3-0.7c0.2-0.2,0.5-0.3,0.8-0.3c0.3,0,0.6,0,0.9,0.2L197.8,41.2z M210.6,57c-0.3,0-0.6-0.1-0.8-0.3
				s-0.3-0.4-0.3-0.7V52h-11.8v4.1c0,0.3-0.1,0.5-0.3,0.7c-0.2,0.2-0.5,0.3-0.8,0.3c-0.3,0-0.6-0.1-0.9-0.3
				c-0.2-0.2-0.4-0.4-0.4-0.7v-4.4c0-0.5,0.2-0.8,0.6-1.1c0.4-0.3,0.9-0.5,1.5-0.5h12.5c0.6,0,1,0.2,1.5,0.5s0.6,0.7,0.6,1.1v4.4
				c0,0.3-0.1,0.5-0.4,0.7C211.3,56.9,211,57,210.6,57z M213.9,47.8c0.3,0.1,0.6,0.2,0.8,0.4c0.2,0.2,0.2,0.5,0.1,0.7
				c-0.1,0.2-0.2,0.4-0.4,0.5s-0.5,0.2-0.7,0.2c-0.1,0-0.2,0-0.3,0c-1.7-0.3-3.1-0.7-4.4-1.3c-1.2-0.5-2.4-1.3-3.6-2.2
				c-0.9,1-2,1.8-3.3,2.4c-1.3,0.6-2.8,1-4.4,1.2h-0.2c-0.3,0-0.6-0.1-0.8-0.2c-0.2-0.2-0.4-0.3-0.4-0.6c0-0.3,0-0.5,0.2-0.7
				c0.2-0.2,0.5-0.3,0.8-0.4c1.8-0.2,3.4-0.7,4.6-1.5c1.3-0.8,2.2-1.9,2.7-3.3c0.1-0.3,0.3-0.4,0.6-0.6s0.6-0.1,0.9-0.1
				c0.3,0.1,0.6,0.2,0.7,0.5c0.2,0.2,0.2,0.5,0.1,0.7c0,0.2-0.1,0.3-0.2,0.4c-0.1,0.1-0.1,0.3-0.2,0.4c0.6,0.5,1.1,0.9,1.6,1.2
				c0.5,0.4,1.1,0.7,1.7,0.9s1.2,0.5,1.8,0.7C212.4,47.4,213.1,47.6,213.9,47.8z M202.7,38.7c0.3,0.1,0.6,0.2,0.7,0.4
				c0.2,0.2,0.2,0.5,0.2,0.7l-0.1,0.2l9,0c0.2,0,0.4,0,0.5,0.1c0.2,0.1,0.3,0.2,0.4,0.3c0.2,0.2,0.3,0.5,0.2,0.8l-1.2,3.2
				c-0.1,0.2-0.2,0.4-0.4,0.5c-0.2,0.1-0.4,0.2-0.7,0.2c-0.1,0-0.2,0-0.3,0c-0.3-0.1-0.6-0.2-0.7-0.4c-0.2-0.2-0.2-0.5-0.1-0.7
				l0.7-2l-8.3,0c-0.6,1-1.3,2-2.2,2.9c-0.2,0.2-0.5,0.4-0.9,0.4c-0.3,0-0.5-0.1-0.7-0.2c-0.3-0.2-0.4-0.4-0.5-0.6
				c0-0.2,0-0.5,0.2-0.7c0.4-0.4,0.8-0.9,1.2-1.4c0.4-0.5,0.7-1,0.9-1.5c0-0.1,0-0.2,0.1-0.3c0.1-0.2,0.2-0.4,0.3-0.6
				s0.2-0.4,0.2-0.6c0.1-0.3,0.3-0.4,0.5-0.6C202,38.7,202.3,38.6,202.7,38.7z"/>
			<path class="st1" d="M223.6,50.2c-0.4,0-0.8-0.1-1-0.4l-2.6-2.9c-0.2-0.2-0.3-0.5-0.2-0.7c0.1-0.2,0.2-0.4,0.5-0.6
				c0.3-0.1,0.6-0.2,0.9-0.1c0.3,0,0.6,0.2,0.8,0.4l2.6,2.9c0.2,0.2,0.2,0.5,0.2,0.7c-0.1,0.2-0.2,0.4-0.5,0.6
				C224,50.1,223.8,50.2,223.6,50.2z M221.5,60.5c-0.1,0-0.2,0-0.2,0c-0.3,0-0.6-0.2-0.8-0.4c-0.2-0.2-0.2-0.4-0.2-0.7l1.7-6.4
				c0.1-0.3,0.2-0.5,0.5-0.6c0.3-0.1,0.6-0.2,0.9-0.1c0.3,0,0.6,0.2,0.8,0.4c0.2,0.2,0.2,0.4,0.2,0.7l-1.7,6.4
				c0,0.2-0.2,0.4-0.4,0.5C222,60.4,221.8,60.5,221.5,60.5z M224.5,44.2c-0.4,0-0.7-0.1-0.9-0.4l-2.7-2.6c-0.2-0.2-0.3-0.4-0.3-0.7
				c0-0.3,0.2-0.5,0.4-0.6c0.3-0.2,0.6-0.2,0.9-0.2c0.3,0,0.6,0.1,0.8,0.3l2.7,2.6c0.2,0.2,0.3,0.4,0.3,0.7s-0.2,0.5-0.4,0.6
				C225,44.1,224.8,44.2,224.5,44.2z M225.4,61.3c-0.2,0-0.3,0-0.4,0c-0.3-0.1-0.5-0.2-0.7-0.5c-0.2-0.2-0.2-0.5-0.1-0.7
				c0.5-1.3,1-2.4,1.2-3.5c0.3-1.1,0.5-2.2,0.6-3.3c0.1-1.1,0.2-2.4,0.2-3.7s0-2.9,0-4.8c0-0.5,0-1.1,0-1.7s0-1.2,0-1.9
				c0-0.4,0.2-0.8,0.6-1.1c0.4-0.3,0.9-0.5,1.4-0.5h12.6c0.4,0,0.6,0.1,0.9,0.3c0.2,0.2,0.3,0.4,0.3,0.7s-0.1,0.5-0.3,0.7
				c-0.2,0.2-0.5,0.3-0.9,0.3h-12.2c0,0.6,0,1.2,0,1.7c0,0.5,0,1.1,0,1.6c0,1.8,0,3.4,0,4.8s-0.1,2.6-0.2,3.8
				c-0.1,1.2-0.4,2.3-0.7,3.5c-0.3,1.1-0.7,2.4-1.3,3.7c-0.1,0.2-0.3,0.4-0.5,0.5C225.8,61.3,225.6,61.3,225.4,61.3z M229.7,60.2
				c-0.2,0-0.4,0-0.5-0.1c-0.3-0.1-0.5-0.3-0.6-0.6c-0.1-0.2-0.1-0.5,0.1-0.7l2.4-3.8c0.1-0.2,0.4-0.4,0.7-0.5
				c0.3-0.1,0.6-0.1,0.9,0c0.3,0.1,0.5,0.3,0.6,0.6c0.1,0.2,0.1,0.5-0.1,0.7l-2.4,3.8c-0.1,0.2-0.2,0.3-0.4,0.4S230,60.2,229.7,60.2
				z M232.4,61.4c-0.3,0-0.6-0.1-0.8-0.3c-0.2-0.2-0.3-0.4-0.3-0.7c0-0.3,0.1-0.5,0.3-0.7c0.2-0.2,0.5-0.3,0.8-0.3
				c0.6,0,1.1-0.2,1.5-0.5c0.4-0.3,0.6-0.7,0.6-1.2v-5h-2.5c-0.6,0-1-0.2-1.4-0.5c-0.4-0.3-0.6-0.7-0.6-1.1v-6
				c0-0.4,0.2-0.8,0.6-1.1c0.4-0.3,0.9-0.5,1.4-0.5h1.3l0.6-1.4c0.1-0.3,0.3-0.4,0.6-0.6c0.3-0.1,0.6-0.1,0.9-0.1
				c0.3,0.1,0.6,0.2,0.7,0.5s0.2,0.5,0.1,0.7l-0.3,0.8h3.5c0.6,0,1,0.2,1.4,0.5c0.4,0.3,0.6,0.7,0.6,1.1v6c0,0.4-0.1,0.8-0.5,1.1
				c-0.4,0.3-0.9,0.5-1.5,0.5h-2.4v5c0,0.5-0.1,1-0.3,1.4c-0.2,0.4-0.5,0.8-1,1.1c-0.4,0.3-0.9,0.6-1.4,0.7
				C233.7,61.3,233.1,61.4,232.4,61.4z M239,45.5h-6.6v1.8h6.6V45.5z M232.5,51h6.6v-1.8h-6.6V51z M241.1,60c-0.2,0-0.4,0-0.6-0.1
				c-0.2-0.1-0.3-0.2-0.4-0.4l-2.3-3.6c-0.1-0.2-0.2-0.5,0-0.7c0.1-0.2,0.3-0.4,0.6-0.5c0.3-0.1,0.6-0.1,0.9,0
				c0.3,0.1,0.5,0.3,0.7,0.5l2.2,3.6c0.1,0.2,0.2,0.5,0,0.7c-0.1,0.2-0.3,0.4-0.6,0.5c-0.1,0-0.2,0.1-0.3,0.1
				C241.3,59.9,241.2,60,241.1,60z"/>
			<path class="st1" d="M248.2,45.4c-0.3-0.1-0.5-0.3-0.6-0.5c-0.1-0.2,0-0.5,0.1-0.7l1.9-2.7l0.1-0.2l1.6-2.2
				c0.2-0.2,0.4-0.4,0.7-0.5c0.3-0.1,0.6-0.1,0.9,0.1c0.3,0.1,0.5,0.3,0.6,0.6c0.1,0.2,0.1,0.5-0.1,0.7l-0.7,0.9h4.9
				c0.3,0,0.6,0.1,0.9,0.3s0.4,0.4,0.4,0.6c0,0.3-0.1,0.5-0.4,0.7c-0.2,0.2-0.5,0.3-0.9,0.3h-2.2l0.9,1.4c0.1,0.2,0.2,0.5,0,0.7
				s-0.3,0.4-0.6,0.5c-0.1,0.1-0.3,0.1-0.5,0.1c-0.2,0-0.4,0-0.6-0.1c-0.2-0.1-0.3-0.2-0.4-0.4l-1.4-2.2h-1.3l-1.7,2.3
				c-0.2,0.3-0.6,0.5-1,0.5C248.6,45.6,248.4,45.5,248.2,45.4z M248.1,47.6c0-0.4,0.2-0.8,0.6-1.1c0.4-0.3,0.9-0.5,1.5-0.4h7.4
				l-0.3-0.4c-0.2-0.2-0.3-0.5-0.2-0.7c0.1-0.2,0.2-0.4,0.5-0.6c0.3-0.1,0.6-0.2,0.9-0.1c0.3,0,0.6,0.2,0.8,0.4l1.2,1.4c0,0,0,0,0,0
				c0,0,0,0,0,0h7c0.6,0,1.1,0.2,1.5,0.5c0.4,0.3,0.6,0.7,0.6,1.1v1.6c0,0.3-0.1,0.5-0.4,0.7c-0.2,0.2-0.5,0.3-0.9,0.3
				c-0.3,0-0.6-0.1-0.8-0.3c-0.2-0.2-0.3-0.4-0.3-0.7v-1.4h-16.6v1.4c0,0.3-0.1,0.5-0.3,0.7c-0.2,0.2-0.5,0.3-0.8,0.3
				c-0.3,0-0.6-0.1-0.9-0.3c-0.2-0.2-0.4-0.4-0.4-0.7V47.6z M252.3,61.6c-0.3,0-0.6-0.1-0.8-0.3c-0.2-0.2-0.4-0.4-0.4-0.7V50.1
				c0-0.3,0.1-0.5,0.4-0.7c0.2-0.2,0.5-0.3,0.9-0.3c0.1,0,0.2,0,0.2,0h11.9c0.6,0,1.1,0.2,1.5,0.5c0.4,0.3,0.6,0.7,0.6,1.1v2.4
				c0,0.4-0.2,0.8-0.6,1.1c-0.4,0.3-0.9,0.5-1.5,0.5h-11v1.3h11.6c0.6,0,1,0.2,1.5,0.5c0.4,0.3,0.6,0.7,0.6,1.1V60
				c0,0.5-0.2,0.8-0.6,1.1c-0.4,0.3-0.9,0.5-1.5,0.5H252.3z M253.5,57.9v1.8h11.2v-1.8H253.5z M264.2,51.1h-10.6v1.8h10.6V51.1z
				 M268.3,40.9c0.3,0,0.6,0.1,0.8,0.3c0.2,0.2,0.3,0.4,0.3,0.6s-0.1,0.5-0.4,0.7c-0.2,0.2-0.5,0.3-0.9,0.3h-2.4l1.1,1.4
				c0.2,0.2,0.2,0.5,0.2,0.7c-0.1,0.2-0.3,0.4-0.5,0.6c-0.2,0.1-0.4,0.1-0.6,0.1c-0.5,0-0.8-0.1-1-0.4l-1.8-2.3v0h-1.3l-0.7,1.3
				c-0.1,0.2-0.3,0.3-0.5,0.4c-0.2,0.1-0.4,0.1-0.6,0.1c-0.2,0-0.4,0-0.5-0.1c-0.3-0.1-0.5-0.3-0.6-0.5s-0.1-0.5,0-0.7l2.4-4.1
				c0.2-0.2,0.4-0.4,0.7-0.5c0.3-0.1,0.6-0.1,0.9,0c0.3,0.1,0.5,0.3,0.6,0.5s0.1,0.5,0,0.7l-0.6,1H268.3z"/>
			<path class="st1" d="M277.6,57.1v-7.2h-1.5c-0.3,0-0.6-0.1-0.8-0.3c-0.2-0.2-0.3-0.4-0.3-0.7c0-0.3,0.1-0.5,0.3-0.7
				c0.2-0.2,0.5-0.3,0.8-0.3h1.5v-5.7H276c-0.3,0-0.6-0.1-0.8-0.3c-0.2-0.2-0.3-0.4-0.3-0.7c0-0.2,0.1-0.5,0.3-0.6
				c0.2-0.2,0.5-0.3,0.8-0.3h5.4c0.3,0,0.6,0.1,0.9,0.3c0.2,0.2,0.4,0.4,0.4,0.6c0,0.3-0.1,0.5-0.4,0.7c-0.2,0.2-0.5,0.3-0.9,0.3
				H280v5.7h1.1c0.3,0,0.6,0.1,0.8,0.3c0.2,0.2,0.3,0.4,0.3,0.7c0,0.3-0.1,0.5-0.3,0.7c-0.2,0.2-0.5,0.3-0.8,0.3H280v6.4l1.2-0.5
				c0.3-0.1,0.6-0.1,0.9,0c0.3,0.1,0.5,0.2,0.7,0.5c0.1,0.2,0.2,0.5,0,0.7c-0.1,0.2-0.3,0.4-0.6,0.5l-5.7,2.2
				c-0.1,0.1-0.3,0.1-0.5,0.1s-0.4,0-0.6-0.1c-0.2-0.1-0.3-0.2-0.5-0.4c-0.2-0.2-0.2-0.5-0.1-0.7c0.1-0.2,0.3-0.4,0.6-0.5
				L277.6,57.1z M296.1,59.3c0.4,0,0.6,0.1,0.9,0.3c0.2,0.2,0.3,0.4,0.3,0.7s-0.1,0.5-0.3,0.7c-0.2,0.2-0.5,0.3-0.8,0.3h-13.3
				c-0.3,0-0.6-0.1-0.9-0.3c-0.2-0.2-0.4-0.4-0.4-0.7s0.1-0.5,0.4-0.7c0.2-0.2,0.5-0.3,0.9-0.3h5.7v-3.1h-4.2
				c-0.3,0-0.6-0.1-0.9-0.3c-0.2-0.2-0.4-0.4-0.4-0.7c0-0.2,0.1-0.5,0.4-0.6c0.2-0.2,0.5-0.3,0.9-0.3h4.3v-2.9h-3.6
				c-0.5,0-1-0.2-1.3-0.5c-0.3-0.3-0.5-0.7-0.5-1.2v-8.4c0-0.5,0.2-0.9,0.5-1.2c0.3-0.3,0.8-0.5,1.3-0.5h9.8c0.5,0,0.9,0.2,1.3,0.5
				c0.3,0.3,0.5,0.7,0.5,1.1v8.4c0,0.5-0.2,0.9-0.5,1.2c-0.3,0.3-0.8,0.5-1.3,0.5h-3.8v2.9h4.3c0.3,0,0.6,0.1,0.8,0.3
				c0.2,0.2,0.3,0.4,0.3,0.6c0,0.3-0.1,0.5-0.3,0.7c-0.2,0.2-0.5,0.3-0.8,0.3h-4.3v3.1H296.1z M285.5,41.6v3.1h3v-3.1H285.5z
				 M288.5,49.6v-3h-3v3H288.5z M294.1,41.6h-3.2v3.1h3.2V41.6z M294.1,49.6v-3h-3.2v3H294.1z"/>
			<path class="st1" d="M323.5,50.1c0.4,0,0.6,0.1,0.9,0.3c0.2,0.2,0.3,0.4,0.3,0.7s-0.1,0.5-0.4,0.7c-0.2,0.2-0.5,0.3-0.9,0.3h-8.8
				v8.7c0,0.3-0.1,0.5-0.3,0.7c-0.2,0.2-0.5,0.3-0.9,0.3c-0.3,0-0.6-0.1-0.8-0.3c-0.2-0.2-0.3-0.4-0.3-0.7V52h-8.9
				c-0.3,0-0.6-0.1-0.9-0.3c-0.2-0.2-0.4-0.4-0.4-0.7s0.1-0.5,0.4-0.7c0.2-0.2,0.5-0.3,0.9-0.3h8.9v-8.7h-7.7
				c-0.3,0-0.6-0.1-0.8-0.3c-0.2-0.2-0.3-0.4-0.3-0.7c0-0.3,0.1-0.5,0.3-0.7c0.2-0.2,0.5-0.3,0.8-0.3h17.8c0.3,0,0.6,0.1,0.8,0.3
				c0.2,0.2,0.3,0.4,0.3,0.7c0,0.3-0.1,0.5-0.3,0.7c-0.2,0.2-0.5,0.3-0.8,0.3h-7.7v8.7H323.5z M308.1,48.3c-0.5,0-0.9-0.2-1.1-0.5
				l-2.1-3.2c-0.2-0.2-0.2-0.5-0.1-0.7s0.3-0.4,0.6-0.6c0.3-0.1,0.6-0.1,0.9,0c0.3,0.1,0.6,0.2,0.7,0.5l2.1,3.2
				c0.1,0.2,0.2,0.5,0.1,0.7c-0.1,0.2-0.3,0.4-0.6,0.6c-0.1,0-0.2,0.1-0.3,0.1C308.3,48.3,308.2,48.3,308.1,48.3z M319.1,43.9
				c0.1-0.2,0.3-0.4,0.6-0.5c0.3-0.1,0.6-0.1,0.9,0c0.3,0.1,0.5,0.3,0.7,0.5c0.1,0.2,0.2,0.5,0.1,0.7l-1.5,3.2
				c-0.1,0.2-0.3,0.3-0.5,0.5c-0.2,0.1-0.4,0.2-0.7,0.2c-0.1,0-0.2,0-0.4-0.1c-0.3-0.1-0.5-0.2-0.7-0.5s-0.2-0.5-0.1-0.7L319.1,43.9
				z"/>
			<path class="st1" d="M331.3,48.9c-0.5,0-0.9-0.2-1.1-0.6c-0.1-0.2-0.1-0.4-0.1-0.6c0-0.2,0.2-0.4,0.4-0.5
				c0.7-0.5,1.5-1.1,2.3-1.8c0.8-0.7,1.5-1.4,2.2-2.1c0.7-0.7,1.3-1.4,2-2.1s1.1-1.4,1.6-2c0.2-0.2,0.4-0.4,0.7-0.4
				c0.3-0.1,0.6,0,0.9,0.1c0.3,0.1,0.5,0.3,0.6,0.6s0,0.5-0.1,0.7c-0.7,1-1.7,2.1-2.7,3.3c-1.1,1.2-2.2,2.3-3.4,3.4l11.9-0.9
				l-2.2-2.4c-0.2-0.2-0.3-0.4-0.2-0.7c0.1-0.2,0.2-0.4,0.5-0.6c0.2-0.2,0.5-0.2,0.9-0.2s0.6,0.2,0.8,0.4l5.3,5.9
				c0.2,0.2,0.3,0.4,0.2,0.7c-0.1,0.2-0.2,0.5-0.5,0.6c-0.2,0.1-0.4,0.2-0.7,0.2c-0.2,0-0.3,0-0.5-0.1s-0.3-0.2-0.4-0.3l-1.6-1.7
				l-16.5,1.3H331.3z M334.1,60.9c-0.6,0-1.1-0.2-1.5-0.5s-0.6-0.8-0.6-1.2v-6.5c0-0.5,0.2-0.9,0.6-1.3c0.4-0.3,0.9-0.5,1.5-0.5
				h13.4c0.6,0,1,0.2,1.4,0.5c0.4,0.3,0.6,0.8,0.6,1.3v6.5c0,0.5-0.2,0.9-0.6,1.3c-0.4,0.3-0.9,0.5-1.4,0.5H334.1z M334.5,59h12.6
				v-6.3h-12.6V59z"/>
		</g>
	</g>
</g>
</svg>
